<?xml version="1.0" standalone="no"?><!DOCTYPE svg PUBLIC "-//W3C//DTD SVG 1.1//EN" "http://www.w3.org/Graphics/SVG/1.1/DTD/svg11.dtd"><svg class="icon" width="200px" height="200.00px" viewBox="0 0 1024 1024" version="1.1" xmlns="http://www.w3.org/2000/svg"><path fill="#5167dc" d="M228.7 212.1v66.7H112v-66.7h116.7z m333.2 266.6v66.7H112v-66.7h449.9zM295.4 745.4V812H112v-66.7h183.4v0.1z m116.6-600c9 0 16.8 3.3 23.5 9.9 6.5 6.5 9.9 14.5 9.9 23.5v133.3c0 9-3.3 16.8-9.9 23.5-6.5 6.5-14.5 9.9-23.5 9.9H278.8c-9 0-16.8-3.3-23.5-9.9-6.5-6.5-9.9-14.3-9.9-23.5V178.9c0-9 3.3-16.8 9.9-23.5 6.5-6.5 14.3-9.9 23.5-9.9h133.3v-0.1h-0.1z m66.7 533.3c9 0 16.8 3.3 23.5 9.9 6.5 6.5 9.9 14.5 9.9 23.5v133.3c0 9-3.3 16.8-9.9 23.5-6.5 6.5-14.5 9.9-23.5 9.9H345.3c-9 0-16.8-3.3-23.5-9.9-6.5-6.5-9.9-14.5-9.9-23.5V712.1c0-9 3.3-16.8 9.9-23.5 6.5-6.5 14.3-9.9 23.5-9.9h133.4v-0.1zM912 212.1v66.7H462.1v-66.7H912z m0 533.3V812H528.6v-66.7h383.3v0.1h0.1zM745.2 412.1c9 0 16.8 3.3 23.5 9.9 6.5 6.5 9.9 14.5 9.9 23.5v133.3c0 9-3.3 16.8-9.9 23.5-6.5 6.5-14.5 9.9-23.5 9.9H612c-9 0-16.8-3.3-23.5-9.9-6.5-6.5-9.9-14.3-9.9-23.5V445.4c0-9 3.3-16.8 9.9-23.5 6.5-6.5 14.5-9.9 23.5-9.9l133.2 0.1zM912 478.7v66.7H795.3v-66.7H912z" /></svg>