<?xml version="1.0" standalone="no"?><!DOCTYPE svg PUBLIC "-//W3C//DTD SVG 1.1//EN" "http://www.w3.org/Graphics/SVG/1.1/DTD/svg11.dtd"><svg t="1562726080861" class="icon" viewBox="0 0 1463 1024" version="1.1" xmlns="http://www.w3.org/2000/svg" p-id="2060" xmlns:xlink="http://www.w3.org/1999/xlink" width="285.7421875" height="200"><defs><style type="text/css"></style></defs><path d="M428.325 353.573L695.003 92.306c20.773-20.187 54.272-20.187 75.045 0l266.679 261.267c20.772 20.333 20.772 53.248 0 73.435-20.626 20.334-54.272 20.334-75.045 0l-229.23-224.402L503.37 427.008c-20.772 20.334-54.272 20.334-75.044 0-20.627-20.187-20.627-53.102 0-73.435zM1036.58 669.11L770.049 930.378c-20.773 20.188-54.272 20.188-75.045 0L428.325 669.111c-20.773-20.334-20.773-53.248 0-73.436 20.626-20.333 54.272-20.333 75.044 0l229.084 224.549 229.083-224.549c20.773-20.333 54.272-20.333 75.045 0 20.772 20.334 20.772 53.102 0 73.436z" p-id="2061" fill="#5167dc"></path></svg>